<?xml version="1.0" standalone="no"?><!DOCTYPE svg PUBLIC "-//W3C//DTD SVG 1.1//EN" "http://www.w3.org/Graphics/SVG/1.1/DTD/svg11.dtd"><svg t="1619713654020" class="icon" viewBox="0 0 1024 1024" version="1.1" xmlns="http://www.w3.org/2000/svg" p-id="5121" xmlns:xlink="http://www.w3.org/1999/xlink" width="200" height="200"><defs><style type="text/css"></style></defs><path d="M362.666667 565.333333h-48C199.466667 565.333333 106.666667 658.133333 106.666667 773.333333S199.466667 981.333333 314.666667 981.333333H362.666667V565.333333z" fill="#1296db" p-id="5122"></path><path d="M106.666667 773.333333C106.666667 888.533333 199.466667 981.333333 314.666667 981.333333H362.666667L106.666667 773.333333z" fill="#1296db" opacity=".7" p-id="5123"></path><path d="M661.333333 565.333333h48C824.533333 565.333333 917.333333 658.133333 917.333333 773.333333S824.533333 981.333333 709.333333 981.333333H661.333333V565.333333z" fill="#1296db" p-id="5124"></path><path d="M917.333333 773.333333C917.333333 888.533333 824.533333 981.333333 709.333333 981.333333H661.333333l256-208z" fill="#1296db" opacity=".7" p-id="5125"></path><path d="M1002.666667 800h-85.333334c-11.733333 0-21.333333-9.6-21.333333-21.333333s9.6-21.333333 21.333333-21.333334h85.333334c11.733333 0 21.333333 9.6 21.333333 21.333334s-9.6 21.333333-21.333333 21.333333z" fill="#1296db" p-id="5126"></path><path d="M981.333333 800c-11.733333 0-21.333333-9.6-21.333333-21.333333V512C960 264.533333 759.466667 64 512 64S64 264.533333 64 512v266.666667c0 11.733333-9.6 21.333333-21.333333 21.333333s-21.333333-9.6-21.333334-21.333333V512C21.333333 241.066667 241.066667 21.333333 512 21.333333s490.666667 219.733333 490.666667 490.666667v266.666667c0 11.733333-9.6 21.333333-21.333334 21.333333z" fill="#1296db" p-id="5127"></path><path d="M106.666667 800H21.333333c-11.733333 0-21.333333-9.6-21.333333-21.333333s9.6-21.333333 21.333333-21.333334h85.333334c11.733333 0 21.333333 9.6 21.333333 21.333334s-9.6 21.333333-21.333333 21.333333z" fill="#1296db" p-id="5128"></path><path d="M192 789.333333h-85.333333c-6.4 0-10.666667-4.266667-10.666667-10.666666s4.266667-10.666667 10.666667-10.666667h85.333333c6.4 0 10.666667 4.266667 10.666667 10.666667s-4.266667 10.666667-10.666667 10.666666zM917.333333 789.333333h-85.333333c-6.4 0-10.666667-4.266667-10.666667-10.666666s4.266667-10.666667 10.666667-10.666667h85.333333c6.4 0 10.666667 4.266667 10.666667 10.666667s-4.266667 10.666667-10.666667 10.666666zM981.333333 672c-11.733333 0-21.333333-9.6-21.333333-21.333333 0-247.466667-200.533333-448-448-448S64 403.2 64 650.666667c0 11.733333-9.6 21.333333-21.333333 21.333333s-21.333333-9.6-21.333334-21.333333c0-270.933333 219.733333-490.666667 490.666667-490.666667s490.666667 219.733333 490.666667 490.666667c0 11.733333-9.6 21.333333-21.333334 21.333333z" fill="#1296db" p-id="5129"></path><path d="M362.666667 1002.666667h-48C187.733333 1002.666667 85.333333 900.266667 85.333333 773.333333S187.733333 544 314.666667 544H362.666667c11.733333 0 21.333333 9.6 21.333333 21.333333v416c0 11.733333-9.6 21.333333-21.333333 21.333334z m-48-416C212.266667 586.666667 128 670.933333 128 773.333333S212.266667 960 314.666667 960H341.333333V586.666667h-26.666666z" fill="#1296db" p-id="5130"></path><path d="M298.666667 992c-6.4 0-10.666667-4.266667-10.666667-10.666667V714.666667c0-6.4 4.266667-10.666667 10.666667-10.666667s10.666667 4.266667 10.666666 10.666667v266.666666c0 6.4-4.266667 10.666667-10.666666 10.666667zM725.333333 992c-6.4 0-10.666667-4.266667-10.666666-10.666667V714.666667c0-6.4 4.266667-10.666667 10.666666-10.666667s10.666667 4.266667 10.666667 10.666667v266.666666c0 6.4-4.266667 10.666667-10.666667 10.666667zM437.333333 1002.666667h-74.666666c-11.733333 0-21.333333-9.6-21.333334-21.333334s9.6-21.333333 21.333334-21.333333h53.333333V586.666667h-53.333333c-11.733333 0-21.333333-9.6-21.333334-21.333334s9.6-21.333333 21.333334-21.333333h74.666666c11.733333 0 21.333333 9.6 21.333334 21.333333v416c0 11.733333-9.6 21.333333-21.333334 21.333334zM661.333333 1002.666667h-74.666666c-11.733333 0-21.333333-9.6-21.333334-21.333334V565.333333c0-11.733333 9.6-21.333333 21.333334-21.333333h74.666666c11.733333 0 21.333333 9.6 21.333334 21.333333s-9.6 21.333333-21.333334 21.333334h-53.333333v373.333333h53.333333c11.733333 0 21.333333 9.6 21.333334 21.333333s-9.6 21.333333-21.333334 21.333334z" fill="#1296db" p-id="5131"></path><path d="M709.333333 1002.666667H661.333333c-11.733333 0-21.333333-9.6-21.333333-21.333334V565.333333c0-11.733333 9.6-21.333333 21.333333-21.333333h48C836.266667 544 938.666667 646.4 938.666667 773.333333S836.266667 1002.666667 709.333333 1002.666667zM682.666667 960h26.666666C811.733333 960 896 875.733333 896 773.333333S811.733333 586.666667 709.333333 586.666667H682.666667v373.333333zM309.333333 1002.666667H21.333333c-11.733333 0-21.333333-9.6-21.333333-21.333334s9.6-21.333333 21.333333-21.333333h288c11.733333 0 21.333333 9.6 21.333334 21.333333s-9.6 21.333333-21.333334 21.333334z" fill="#1296db" p-id="5132"></path><path d="M1002.666667 1002.666667H714.666667c-11.733333 0-21.333333-9.6-21.333334-21.333334s9.6-21.333333 21.333334-21.333333h288c11.733333 0 21.333333 9.6 21.333333 21.333333s-9.6 21.333333-21.333333 21.333334zM512 192c-6.4 0-10.666667-4.266667-10.666667-10.666667V42.666667c0-6.4 4.266667-10.666667 10.666667-10.666667s10.666667 4.266667 10.666667 10.666667v138.666666c0 6.4-4.266667 10.666667-10.666667 10.666667zM458.666667 195.2c-6.4 0-10.666667-4.266667-10.666667-10.666667v-138.666666c0-6.4 4.266667-10.666667 10.666667-10.666667s10.666667 4.266667 10.666666 10.666667v138.666666c0 5.333333-4.266667 10.666667-10.666666 10.666667zM565.333333 195.2c-6.4 0-10.666667-4.266667-10.666666-10.666667v-138.666666c0-6.4 4.266667-10.666667 10.666666-10.666667s10.666667 4.266667 10.666667 10.666667v138.666666c0 5.333333-4.266667 10.666667-10.666667 10.666667zM437.333333 640h-74.666666c-6.4 0-10.666667-4.266667-10.666667-10.666667s4.266667-10.666667 10.666667-10.666666h74.666666c6.4 0 10.666667 4.266667 10.666667 10.666666s-4.266667 10.666667-10.666667 10.666667zM437.333333 928h-74.666666c-6.4 0-10.666667-4.266667-10.666667-10.666667s4.266667-10.666667 10.666667-10.666666h74.666666c6.4 0 10.666667 4.266667 10.666667 10.666666s-4.266667 10.666667-10.666667 10.666667zM661.333333 640h-74.666666c-6.4 0-10.666667-4.266667-10.666667-10.666667s4.266667-10.666667 10.666667-10.666666h74.666666c6.4 0 10.666667 4.266667 10.666667 10.666666s-4.266667 10.666667-10.666667 10.666667zM661.333333 928h-74.666666c-6.4 0-10.666667-4.266667-10.666667-10.666667s4.266667-10.666667 10.666667-10.666666h74.666666c6.4 0 10.666667 4.266667 10.666667 10.666666s-4.266667 10.666667-10.666667 10.666667z" fill="#1296db" p-id="5133"></path></svg>